<?xml version="1.0" encoding="UTF-8"?><svg xmlns="http://www.w3.org/2000/svg" xmlns:xlink="http://www.w3.org/1999/xlink" viewBox="0 0 695.76 687.18"><defs><style>.g,.h{fill:none;stroke:#1d1d1b;stroke-miterlimit:10;}.i{fill:url(#f);}.h{stroke-width:2px;}.j{fill:#1d1d1b;}</style><radialGradient id="f" cx="325.13" cy="65" fx="325.13" fy="65" r="65" gradientTransform="matrix(1, 0, 0, 1, 0, 0)" gradientUnits="userSpaceOnUse"><stop offset="0" stop-color="#ff955b" stop-opacity=".9"/><stop offset="1" stop-color="#ff955b" stop-opacity=".3"/></radialGradient></defs><g id="a"/><g id="b"><g id="c"><g><g><path class="j" d="M445.04,60.54l9.28-19.62,8.97,4.24c4.48,2.12,6.34,5.16,4.48,9.08-.85,1.79-1.97,2.36-3.05,2.67-1.11,.47-2.8,.19-3.98-.14l-.03,.06c.64,.17,1.44,.37,2.14,.7,.62,.29,1.12,.67,1.39,1.2,.53,.83,.74,1.93-.18,3.86l-2.65,5.67-2.77-1.31,2.6-5.49c.5-1.07,.24-1.81-1.25-2.51l-8.84-4.15-3.33,7.04-2.78-1.31Zm12.92-5.48c3.03,1.43,5.98,.77,7.03-1.44,1.38-2.91-.02-4.74-3.05-6.18l-5.97-2.82-3.67,7.76,5.66,2.68Z"/><path class="j" d="M466.53,62.23l3.38-7.15,2.75,1.3-3.38,7.15c-1.41,2.97-.89,4.86,1.38,5.93,1.21,.57,4.36,.86,6.84-4.38l2.48-5.24,2.75,1.3-6.63,14.01-2.75-1.3,1.27-2.69c.28-.59,.74-1.26,1.11-1.77l-.04-.05c-1.78,2.38-4.35,3.84-7.33,2.43-4.06-1.92-3.58-5.84-1.83-9.54Z"/><path class="j" d="M482.4,69.64c2.29-4.85,6.94-5.53,11.07-3.54,4.11,1.98,6.36,5.85,4.06,10.7-.19,.39-.2,.42-.43,.76l-12.22-5.78c-.89,2.97,.32,5.26,2.92,6.46,2.17,.99,4.2,1.13,5.96-.57l2.36,1.53c-2.67,2.89-6.13,2.8-9.45,1.26-4.16-1.93-6.58-5.96-4.29-10.81Zm2.49,2.14c1.14-1.31,1.89-1.16,3.23-.53l7.23,3.42c.96-3.04-.31-5.15-2.84-6.39-2.48-1.21-6.05-.56-7.62,3.49Z"/><path class="j" d="M508.26,82.32c-.87,2.27-.36,5.04,2.67,6.47,2.69,1.27,5.62,.15,7.14-3.07l5.66-11.97,2.75,1.3-5.7,12.05c-2.6,5.49-6.98,6.2-11.07,4.26-3.5-1.66-6.24-5.08-4.44-9.54l2.99,.49Z"/><path class="j" d="M524.7,98.18c-2.75-1.3-4.77-3.97-3.57-6.52,2.92-6.17,12.44,2.7,13.47,.3,.92-2.17-.07-3.63-2.73-4.89-2.16-1.02-4.12-1.3-5.48,.77l-2.25-1.48c1.97-3.22,5.79-2.96,8.77-1.51,3.38,1.63,6.14,4.48,4.16,8.69l-2.41,5.1c-.34,.73-.17,1.02,.42,1.29l.64,.3-1.23,2.61-1.79-.85c-1.4-.66-1.86-2.08-1.28-3.31l.58-1.23c-1.9,1.98-4.9,1.87-7.31,.73Zm1.55-1.53c2.33,1.1,5.55,1.25,6.48-.71l.88-1.85c-3.07,.26-8.16-4.58-9.75-1.22-.7,1.49,.58,2.91,2.4,3.78Z"/><path class="j" d="M543.28,89.86l2.75,1.3-1.37,2.89c-.27,.56-.74,1.26-1.11,1.77l.04,.05c.38-.51,.9-1.19,1.42-1.56,2.2-1.67,4.68-1.7,6.56-.81,3.53,1.67,3.1,5.62,1.35,9.32l-3.38,7.15-2.75-1.3,3.38-7.15c1.26-2.66,1.07-4.81-.83-5.71-1.43-.68-4.99-1.13-7.47,4.12l-2.48,5.24-2.75-1.3,6.63-14.01Z"/><path class="j" d="M553.92,106.93c.56-1.18,1.58-1.45,3.09-1.25,.04-.08-.62-1.87,.12-3.44,1.58-3.34,5.77-3.07,8.77-1.65,1.23,.58,1.94,1.19,2.85,2.03,0-2.61,3.19-1.3,5.63-.08l-.94,1.99-1.71-.81c-.59-.28-2.18-.96-1.77,.26,.07,.21,1.1,2.24,.13,4.28-1.55,3.28-5.76,3.04-8.7,1.65-.81-.38-1.57-.88-2.22-1.46-.21-.2-.41-.43-.47-.46-.69-.36-1.66-.27-1.86,.15-1.23,2.61,12.69,5.8,9.87,11.77-1.56,3.31-6.69,1.88-9.96,.33-3.06-1.45-8.02-4.79-6.46-8.1,1.03-2.19,2.99-2.19,4.81-1.98-1.27-1.01-1.7-2.14-1.18-3.23Zm3.81,11.3c1.82,.86,5.42,2.02,6.27,.22s-2.75-3.98-4.7-5.14c-.27-.16-.84-.54-1.12-.67-1.29-.61-4.27-.99-5.05,.66-.82,1.74,2.67,4.01,4.6,4.92Zm4.63-10.36c1.71,.81,4.01,1.17,4.97-.87,.94-1.99-.79-3.56-2.44-4.34s-4.03-1.19-5,.86,.78,3.56,2.47,4.36Z"/><path class="j" d="M572.33,112.17c2.29-4.85,7-5.51,11.13-3.52,4.16,2,6.66,6,4.37,10.85-2.29,4.85-6.98,5.48-11.16,3.5-4.15-1.96-6.64-5.99-4.34-10.83Zm2.75,1.3c-1.55,3.28-.07,5.87,2.71,7.18,2.72,1.29,5.77,.78,7.3-2.45s-.07-5.93-2.72-7.22c-2.57-1.25-5.78-.68-7.28,2.49Z"/><path class="j" d="M590.76,115.34l1.22-2.58,.53,.25c1.29,.61,4.02-.95,4.93-2.88l2.79,1.28c-.79,1.51-2.2,2.7-3.9,2.96-.62,.08-1.45-.2-2.06-.36l-.03,.06c.61,.15,1.41,.43,1.97,.69l4.96,2.35-1.22,2.58-3.56-1.68-3.53,7.46c-.58,1.23-.04,1.83,.83,2.24l2.69,1.27-1.22,2.58-2.55-1.21c-3.67-1.74-3.78-3.47-2.24-6.72l3.27-6.92-2.89-1.37Z"/></g><g><path class="j" d="M530.55,553.19l-18.61-11.17,5.1-8.51c2.55-4.25,5.76-5.8,9.48-3.57,1.7,1.02,2.15,2.2,2.36,3.3,.36,1.15-.09,2.8-.53,3.95l.05,.03c.23-.62,.51-1.39,.91-2.06,.35-.59,.78-1.05,1.33-1.26,.88-.45,1.99-.54,3.82,.56l5.39,3.2-1.58,2.63-5.21-3.13c-1.01-.61-1.78-.42-2.62,.99l-5,8.39,6.67,4-1.58,2.63Zm-4.18-13.39c1.72-2.87,1.36-5.88-.74-7.14-2.77-1.66-4.72-.45-6.45,2.43l-3.4,5.66,7.37,4.42,3.22-5.37Z"/><path class="j" d="M534.35,531.97l-6.78-4.07,1.56-2.61,6.78,4.07c2.82,1.69,4.75,1.37,6.04-.79,.69-1.14,1.29-4.25-3.69-7.24l-4.97-2.98,1.56-2.61,13.29,7.98-1.56,2.61-2.55-1.53c-.56-.34-1.19-.86-1.65-1.28l-.06,.04c2.2,2,3.39,4.71,1.7,7.53-2.31,3.86-6.17,2.99-9.68,.88Z"/><path class="j" d="M543.28,516.9c-4.6-2.76-4.82-7.45-2.44-11.37,2.37-3.89,6.45-5.75,11.05-2.99,.37,.22,.4,.24,.71,.5l-6.95,11.59c2.87,1.18,5.27,.2,6.71-2.27,1.2-2.06,1.54-4.07,.02-5.99l1.75-2.2c2.61,2.94,2.18,6.37,.32,9.52-2.33,3.95-6.58,5.96-11.18,3.2Zm2.37-2.27c-1.2-1.26-.97-1.99-.21-3.27l4.12-6.86c-2.94-1.25-5.16-.2-6.64,2.2-1.45,2.35-1.15,5.96,2.73,7.93Z"/><path class="j" d="M549.86,478.4c2.62-4.25,6.83-6.5,11.84-4.9l-.82,2.94c-3.07-.97-6.31,.09-8.38,3.54-2.5,4.11-1.27,8.02,2.98,10.58,4.31,2.58,8.39,1.63,10.74-2.35,2.11-3.51,1.48-6.81-.82-9.06l2.21-2.11c3.77,3.67,3.76,8.44,1.25,12.75-3.04,5.19-8.47,7.25-14.93,3.37s-7.2-9.64-4.05-14.76Z"/><path class="j" d="M556.21,467.39l1.56-2.61,18.98,11.39-1.56,2.61-18.98-11.39Z"/><path class="j" d="M571.56,469.95l-6.78-4.07,1.56-2.61,6.78,4.07c2.82,1.69,4.75,1.37,6.04-.79,.69-1.14,1.29-4.26-3.69-7.24l-4.97-2.98,1.56-2.61,13.29,7.98-1.56,2.61-2.55-1.53c-.56-.34-1.19-.86-1.65-1.28l-.06,.04c2.2,2,3.39,4.71,1.7,7.53-2.31,3.85-6.17,2.99-9.68,.88Z"/><path class="j" d="M587.18,458.79l-2.61-1.56-2.78-12.55c-.13-.69-.08-1.61,.01-2.31l-.03-.02c-.14,.71-.44,1.58-.79,2.16l-4.51,7.53-2.45-1.47,7.51-12.52,2.61,1.56,2.78,12.48c.17,.68,.13,1.6,.03,2.3l.05,.03c.11-.73,.41-1.59,.77-2.18l4.66-7.76,2.45,1.47-7.7,12.84Z"/><path class="j" d="M598.75,439.45c-1.56,2.61-4.42,4.36-6.84,2.91-5.85-3.51,3.91-12.12,1.63-13.38-2.07-1.13-3.62-.29-5.14,2.23-1.23,2.05-1.7,3.97,.23,5.53l-1.69,2.1c-3.01-2.28-2.37-6.05-.64-8.88,1.96-3.2,5.07-5.67,9.06-3.28l4.84,2.9c.69,.41,.99,.27,1.33-.29l.37-.61,2.47,1.48-1.02,1.7c-.8,1.33-2.25,1.65-3.42,.95l-1.17-.7c1.79,2.08,1.38,5.06,0,7.34Zm-1.37-1.69c1.32-2.21,1.79-5.4-.07-6.51l-1.76-1.05c-.04,3.08-5.36,7.67-2.17,9.58,1.41,.85,2.96-.29,3.99-2.02Z"/><path class="j" d="M592.29,420.14l1.56-2.61,2.74,1.64c.53,.32,1.19,.86,1.65,1.28l.06-.04c-.47-.43-1.09-1.02-1.41-1.57-1.45-2.35-1.23-4.82-.16-6.6,2.01-3.35,5.9-2.54,9.41-.43l6.78,4.07-1.56,2.61-6.78-4.07c-2.53-1.52-4.68-1.54-5.76,.27-.81,1.36-1.61,4.86,3.36,7.84l4.97,2.98-1.56,2.61-13.29-7.98Z"/></g><g><path class="j" d="M86.89,587.81l10.81-18.82,8.6,4.94c4.3,2.47,5.91,5.65,3.75,9.41-.99,1.72-2.15,2.2-3.25,2.42-1.15,.38-2.8-.04-3.96-.45l-.03,.05c.63,.22,1.4,.48,2.07,.87,.59,.34,1.07,.76,1.29,1.31,.46,.87,.58,1.98-.49,3.83l-3.09,5.45-2.66-1.53,3.03-5.27c.59-1.02,.38-1.78-1.04-2.6l-8.48-4.84-3.88,6.75-2.66-1.53Zm13.31-4.44c2.9,1.67,5.9,1.24,7.12-.88,1.61-2.8,.36-4.73-2.55-6.4l-5.73-3.29-4.28,7.45,5.43,3.12Z"/><path class="j" d="M108.17,591.21l3.94-6.86,2.64,1.51-3.94,6.86c-1.64,2.85-1.28,4.77,.9,6.03,1.16,.66,4.28,1.2,7.17-3.82l2.89-5.03,2.63,1.51-7.72,13.44-2.63-1.51,1.48-2.58c.32-.56,.83-1.2,1.25-1.68l-.04-.06c-1.96,2.23-4.65,3.48-7.5,1.84-3.9-2.24-3.11-6.11-1.07-9.66Z"/><path class="j" d="M123.41,599.85c2.67-4.65,7.36-4.96,11.32-2.65,3.94,2.3,5.87,6.34,3.2,10.99-.22,.38-.23,.4-.49,.72l-11.72-6.73c-1.13,2.89-.1,5.27,2.39,6.67,2.09,1.16,4.1,1.46,5.99-.1l2.23,1.71c-2.89,2.67-6.33,2.3-9.52,.5-3.99-2.26-6.09-6.46-3.41-11.11Zm2.31,2.33c1.24-1.22,1.97-1.01,3.27-.27l6.94,3.98c1.2-2.96,.1-5.16-2.33-6.59-2.38-1.4-5.98-1.04-7.88,2.88Z"/><path class="j" d="M142.15,619.56l10.81-18.82,8.6,4.94c4.3,2.47,5.91,5.65,3.75,9.41-.99,1.72-2.15,2.2-3.25,2.42-1.15,.38-2.8-.04-3.96-.45l-.03,.05c.63,.22,1.4,.48,2.07,.87,.59,.34,1.07,.76,1.29,1.31,.46,.87,.58,1.98-.49,3.83l-3.09,5.45-2.66-1.53,3.03-5.27c.59-1.02,.38-1.78-1.04-2.6l-8.48-4.84-3.88,6.75-2.66-1.53Zm13.31-4.44c2.9,1.67,5.9,1.24,7.12-.88,1.61-2.8,.36-4.73-2.55-6.4l-5.73-3.29-4.28,7.45,5.43,3.12Z"/><path class="j" d="M162.6,622.36c2.67-4.65,7.36-4.96,11.32-2.65,3.94,2.3,5.87,6.34,3.2,10.99-.22,.38-.23,.4-.49,.72l-11.72-6.73c-1.13,2.89-.1,5.27,2.39,6.67,2.09,1.16,4.1,1.46,5.99-.1l2.23,1.71c-2.89,2.67-6.33,2.3-9.52,.5-3.99-2.26-6.09-6.46-3.41-11.11Zm2.31,2.33c1.24-1.22,1.97-1.01,3.27-.27l6.94,3.98c1.2-2.96,.1-5.16-2.33-6.59-2.38-1.4-5.98-1.04-7.88,2.88Z"/><path class="j" d="M184.9,622.13l1.31-2.28,2.71,1.56-1.31,2.28-2.71-1.56Zm-9.44,16.57l2.61,1.5,7.72-13.44-2.61-1.5-7.72,13.44Z"/><path class="j" d="M188.02,628.03l2.64,1.51-1.59,2.77c-.31,.54-.83,1.2-1.25,1.68l.04,.06c.42-.48,.99-1.11,1.54-1.44,2.32-1.49,4.8-1.32,6.6-.28,3.39,1.95,2.65,5.85,.61,9.4l-3.94,6.86-2.64-1.51,3.94-6.86c1.47-2.55,1.45-4.71-.38-5.76-1.37-.79-4.88-1.52-7.77,3.51l-2.89,5.03-2.64-1.51,7.72-13.44Z"/><path class="j" d="M199.91,652.7c-2.64-1.51-4.44-4.34-3.04-6.79,3.4-5.91,12.19,3.68,13.41,1.37,1.09-2.09,.22-3.63-2.33-5.09-2.07-1.19-4-1.62-5.52,.33l-2.13-1.65c2.22-3.05,6.01-2.49,8.87-.81,3.24,1.9,5.77,4.96,3.45,8.99l-2.81,4.89c-.4,.7-.25,1,.31,1.32l.62,.36-1.44,2.5-1.72-.99c-1.34-.77-1.69-2.22-1.01-3.41l.68-1.18c-2.05,1.83-5.03,1.47-7.34,.15Zm1.66-1.4c2.23,1.28,5.43,1.69,6.51-.19l1.02-1.77c-3.08,.02-7.77-5.21-9.62-1.99-.82,1.43,.34,2.95,2.09,3.95Z"/><path class="j" d="M230.39,658.45l-2.64-1.01c.44-2.25-.47-4.1-2.71-5.42-2.57-1.51-5.66-1.04-7.39,1.98s-.66,5.88,2.03,7.35c2.22,1.24,4.17,1.21,5.98-.32l2.25,1.76c-2.57,2.74-6.42,2.53-9.5,.8-3.97-2.24-6.06-6.45-3.39-11.1,2.67-4.65,7.36-4.96,11.29-2.67,3.05,1.79,5.15,5.03,4.08,8.64Z"/><path class="j" d="M238.09,649.64l2.64,1.51-4.43,7.72c-.36,.62-.94,1.32-1.44,1.82l.04,.06c.5-.5,1.16-1.15,1.81-1.47,2.29-1.19,4.8-.82,6.81,.34,3.55,2.04,3.51,6.09,1.49,9.61l-4.06,7.07-2.63-1.51,4.06-7.07c1.44-2.5,1.21-4.85-1.05-6.14-1.43-.82-5.6-1.71-8.51,3.37l-2.89,5.03-2.64-1.51,10.81-18.82Z"/></g><g><path class="j" d="M87.23,315.11l-18.54-11.28,5.16-8.48c2.58-4.24,5.79-5.77,9.5-3.51,1.7,1.03,2.14,2.21,2.34,3.31,.35,1.16-.11,2.8-.55,3.95l.05,.03c.23-.62,.52-1.39,.92-2.05,.35-.58,.78-1.05,1.34-1.25,.89-.44,1.99-.53,3.82,.58l5.37,3.23-1.59,2.62-5.19-3.16c-1.01-.61-1.77-.43-2.63,.98l-5.05,8.36,6.65,4.04-1.6,2.62Zm-4.1-13.42c1.74-2.86,1.39-5.87-.7-7.14-2.76-1.68-4.72-.48-6.46,2.39l-3.43,5.64,7.34,4.46,3.25-5.35Z"/><path class="j" d="M91.16,293.92l-6.76-4.11,1.58-2.6,6.76,4.11c2.81,1.71,4.74,1.39,6.05-.75,.69-1.14,1.31-4.25-3.64-7.26l-4.95-3.01,1.58-2.6,13.25,8.06-1.58,2.6-2.54-1.55c-.56-.34-1.18-.86-1.65-1.29l-.06,.04c2.18,2.02,3.36,4.73,1.66,7.54-2.34,3.84-6.19,2.95-9.68,.83Z"/><path class="j" d="M100.18,278.91c-4.58-2.79-4.78-7.48-2.37-11.38,2.39-3.88,6.48-5.71,11.07-2.92,.37,.23,.4,.24,.71,.5l-7.02,11.55c2.86,1.2,5.27,.23,6.72-2.23,1.21-2.06,1.56-4.06,.05-5.99l1.77-2.19c2.59,2.96,2.14,6.38,.27,9.53-2.36,3.94-6.61,5.92-11.2,3.13Zm2.39-2.25c-1.19-1.27-.96-2-.19-3.27l4.16-6.84c-2.93-1.27-5.16-.23-6.65,2.16-1.46,2.34-1.19,5.95,2.68,7.94Z"/><path class="j" d="M106.38,241.86c2.48-4.08,5.39-5.47,8.65-3.48,.72,.44,1.91,1.99,1.69,4.08-.03,.53-.3,1.16-.54,1.6l.05,.03c.23-.44,.55-1.08,.94-1.42,2.09-2,4.67-1.77,6.76-.5,3.95,2.4,4.04,5.94,1.47,10.18l-5.09,8.37-18.54-11.28,4.61-7.58Zm5,9.86l3.77-6.2c1.27-2.09,.72-3.52-1.03-4.58-2.09-1.27-4.01,.14-5.26,2.21l-3.13,5.14,5.64,3.43Zm8.08,4.91l3.61-5.93c1.32-2.17,1.42-4.72-.8-6.08-1.78-1.08-3.44-.31-4.74,1.83l-4,6.57,5.93,3.61Z"/><path class="j" d="M123.94,239.84c-4.58-2.79-4.78-7.48-2.37-11.38,2.39-3.88,6.48-5.71,11.07-2.92,.37,.23,.4,.24,.71,.5l-7.02,11.55c2.86,1.2,5.27,.23,6.72-2.23,1.21-2.06,1.56-4.06,.05-5.99l1.77-2.19c2.59,2.96,2.14,6.38,.27,9.53-2.36,3.94-6.61,5.92-11.2,3.13Zm2.39-2.25c-1.19-1.27-.96-2-.19-3.27l4.16-6.84c-2.93-1.27-5.16-.23-6.65,2.16-1.46,2.34-1.19,5.95,2.68,7.94Z"/><path class="j" d="M139.99,208.67l-1.08,2.61c-2.24-.49-4.11,.37-5.49,2.58-1.57,2.53-1.18,5.63,1.79,7.44,2.99,1.82,5.86,.81,7.4-1.85,1.29-2.19,1.32-4.13-.17-5.98l1.81-2.2c2.67,2.64,2.37,6.49,.56,9.52-2.34,3.91-6.6,5.89-11.18,3.11-4.58-2.79-4.78-7.48-2.38-11.36,1.86-3,5.16-5.03,8.74-3.87Z"/><path class="j" d="M131.37,200.75l1.58-2.6,7.6,4.62c.61,.37,1.3,.97,1.78,1.48l.06-.04c-.49-.51-1.13-1.19-1.42-1.84-1.13-2.32-.7-4.82,.51-6.8,2.13-3.5,6.18-3.36,9.65-1.25l6.97,4.24-1.58,2.6-6.97-4.24c-2.46-1.5-4.81-1.33-6.17,.89-.85,1.4-1.85,5.55,3.16,8.6l4.95,3.01-1.58,2.6-18.54-11.28Z"/><path class="j" d="M152.61,192.69c-4.58-2.79-4.78-7.48-2.37-11.38,2.39-3.88,6.48-5.71,11.07-2.92,.37,.23,.4,.24,.71,.5l-7.02,11.55c2.86,1.2,5.27,.23,6.72-2.22,1.21-2.06,1.56-4.06,.05-5.99l1.77-2.19c2.59,2.96,2.14,6.38,.27,9.52-2.36,3.94-6.61,5.92-11.2,3.13Zm2.38-2.25c-1.19-1.27-.96-2-.19-3.27l4.16-6.84c-2.93-1.27-5.16-.23-6.65,2.16-1.46,2.34-1.19,5.95,2.68,7.94Z"/><path class="j" d="M155.08,173.7l1.71-2.81,12.42,2.37c.71,.14,1.54,.5,2.17,.85l.03-.05c-.63-.34-1.31-.94-1.78-1.48l-7.86-9.86,1.68-2.76,10.23,13.01-2.34,3.84-16.26-3.1Z"/><path class="j" d="M170.36,163.5c-4.58-2.79-4.78-7.48-2.37-11.38,2.39-3.88,6.48-5.71,11.07-2.92,.37,.23,.4,.24,.71,.5l-7.02,11.55c2.86,1.2,5.27,.23,6.72-2.22,1.21-2.06,1.56-4.06,.05-5.99l1.77-2.19c2.59,2.96,2.14,6.38,.27,9.52-2.36,3.94-6.61,5.92-11.2,3.13Zm2.38-2.25c-1.19-1.27-.96-2-.19-3.27l4.16-6.84c-2.93-1.27-5.16-.23-6.65,2.16-1.46,2.34-1.19,5.95,2.68,7.94Z"/><path class="j" d="M168.13,139.47l1.58-2.6,18.92,11.5-1.58,2.6-18.92-11.5Z"/><path class="j" d="M173.72,136.19l-2.25-1.37,1.63-2.68,2.25,1.37-1.63,2.68Zm16.32,9.86l1.56-2.57-13.25-8.06-1.56,2.57,13.25,8.06Z"/><path class="j" d="M179.7,133.23l1.58-2.6,2.73,1.66c.53,.32,1.18,.86,1.65,1.29l.06-.04c-.46-.43-1.08-1.02-1.4-1.58-1.43-2.36-1.2-4.83-.12-6.6,2.03-3.34,5.91-2.5,9.41-.37l6.76,4.11-1.58,2.6-6.76-4.11c-2.52-1.53-4.67-1.57-5.77,.23-.82,1.35-1.64,4.85,3.31,7.86l4.95,3.01-1.58,2.6-13.25-8.06Z"/></g><g id="d"><g id="e"><path class="h" d="M393.78,486.34c-10.39,17.8-20.77,35.59-31.16,53.39-15.34-9.28-30.66-18.55-45.99-27.83l-36.21,57.83-38.35,61.23-109.94-64.13,105.03-170.85,156.63,90.36h0Z"/><polygon class="g" points="140.56 564.72 239.23 404.19 385.45 488.56 360.48 531.35 314.65 503.62 240.05 622.76 140.56 564.72"/><path class="h" d="M437.14,589.25l-51.99,84.55-48.54,12.31-94.54-55.15,38.35-61.23c15.82,9.12,31.65,18.27,47.47,27.41l19.48,.06,29.5-48.72,9.15,6.19,51.11,34.57h0Z"/><path class="g" d="M250.54,628.86l31.92-50.94c14.13,8.15,28.23,16.29,42.36,24.46l1.39,.81,24.58,.08,27.97-46.18,50.17,33.92-47.66,77.5-43.73,11.09-86.98-50.73-.02-.02Z"/><path class="h" d="M488.01,544.16c-11.01,18.33-22.03,36.64-33.07,54.97l-17.81-9.88-51.11-34.57c11.05-17.26,22.08-34.49,33.12-51.75,5.86,3.5,11.72,7.02,17.58,10.53l51.29,30.7Z"/><path class="g" d="M440.31,584.07l-45.98-31.11c8.91-13.94,17.83-27.86,26.74-41.79l58.58,35.08c-8.96,14.91-17.92,29.81-26.9,44.72l-12.45-6.91Z"/><path class="h" d="M521.89,487.88c-11.3,18.75-22.58,37.53-33.88,56.28l-51.29-30.7c11.7-18.51,23.41-37.04,35.09-55.57l50.08,29.99h0Z"/><path class="g" d="M445.17,511.44c9.55-15.09,19.07-30.19,28.6-45.28l39.75,23.82c-4.66,7.76-23.07,38.34-27.61,45.87l-40.76-24.39,.02-.02Z"/><path class="h" d="M602.94,353.19c-27.02,44.9-54.04,89.79-81.05,134.69l-50.08-29.99-30.39-18.2,47.3-78.12,114.23-8.37Z"/><polygon class="g" points="449.76 437.61 492.28 367.38 591.68 360.1 519.81 479.55 449.76 437.61"/><path class="h" d="M694.34,201.32c-16.23,26.96-32.43,53.9-48.66,80.85l-119.26,5.98,23.34-46.29-90.59-43.08,43.95-88.93c63.74,30.5,127.49,60.98,191.23,91.47Z"/><path class="g" d="M557.98,239.06l-90.63-43.1,38.57-78.03c59.92,28.67,119.86,57.33,179.79,86l-43.55,72.35-105.61,5.3,21.44-42.51Z"/><path class="h" d="M503.11,109.86l-43.95,88.93-112.28-53.42,42.7-89.8c37.85,18.11,75.69,36.21,113.54,54.3Z"/><path class="g" d="M354.96,142.5l37.48-78.83c34.17,16.35,68.33,32.68,102.5,49.02l-38.57,78.05-101.39-48.24h-.02Z"/><path class="h" d="M389.57,55.56l-42.7,89.8-38.72,81.43-106.85-61.16C253.97,79.98,296.37,10.97,296.37,10.97c31.07,14.86,62.13,29.73,93.2,44.59Z"/><path class="g" d="M209.75,163.48c43.14-70.18,78.83-128.24,88.92-144.67l82.81,39.62-75.99,159.83-95.72-54.78h-.02Z"/><path class="h" d="M237.15,395.98l-105.03,170.85L1.43,490.62c.51-.75,23.82-38.66,57.16-92.85l165.2-8.95,13.36,7.17Z"/><path class="g" d="M9.88,488.52c4.62-7.5,14.68-23.84,34.61-56.22l17.61-28.63,160.32-8.68,6.19,3.32-98.55,160.31L9.88,488.52Z"/><path class="h" d="M308.15,226.8l-57.4,97.19-128.42,6.54-18.08-7.03c31.53-51.27,66.06-107.44,97.05-157.86l106.85,61.16Z"/><path class="g" d="M113.24,320.47c29.44-47.87,61.22-99.58,90.14-146.65l96.4,55.17-52.62,89.08-123.86,6.31-10.07-3.92h0Z"/></g></g></g><circle class="i" cx="325.13" cy="65" r="65"/></g></g></svg>